<?xml version="1.0" standalone="no"?>
<!DOCTYPE svg PUBLIC "-//W3C//DTD SVG 20010904//EN"
 "http://www.w3.org/TR/2001/REC-SVG-20010904/DTD/svg10.dtd">
<svg version="1.0" xmlns="http://www.w3.org/2000/svg"
 width="720" height="720" viewBox="-37.703337 -130.389707 720 720"
 preserveAspectRatio="xMidYMid meet">
<metadata>
Traced from the user-approved ClipClop tray mark with potrace 1.16.
</metadata>
<g transform="translate(-0.188310,459.826162) scale(0.100000,-0.100000)"
fill="#000000" stroke="none">
<path d="M1887 4589 c-116 -27 -175 -98 -197 -234 -9 -55 -7 -123 10 -339 50
-652 54 -743 40 -795 -16 -59 -58 -101 -103 -101 -42 0 -94 34 -120 78 -20 34
-69 221 -138 527 -76 340 -122 520 -144 571 -50 112 -149 184 -256 184 -131 0
-272 -75 -417 -222 -115 -115 -199 -237 -287 -413 -91 -182 -125 -274 -175
-471 -73 -285 -106 -599 -96 -924 8 -298 44 -533 120 -781 186 -613 611 -1072
1156 -1249 176 -57 316 -80 520 -87 349 -11 640 47 926 186 118 57 254 139
254 153 0 4 -25 46 -56 93 -65 99 -142 259 -178 365 -103 308 -113 697 -30
1109 65 328 167 623 336 973 l80 166 -33 74 c-143 313 -347 617 -558 829 -243
243 -472 351 -654 308z"/>
<path d="M4478 4525 c-236 -53 -515 -245 -786 -540 -487 -530 -853 -1332 -927
-2033 -50 -465 29 -835 246 -1163 78 -117 267 -308 399 -402 113 -80 354 -202
499 -252 379 -130 759 -163 1081 -94 420 91 786 380 1035 821 252 445 405
1061 421 1698 8 302 -17 541 -86 811 -56 220 -171 470 -285 621 -69 92 -169
184 -236 218 -47 24 -142 50 -184 50 -109 0 -220 -81 -280 -203 -19 -40 -91
-250 -160 -467 -139 -439 -189 -588 -216 -641 -26 -51 -83 -99 -120 -99 -43 0
-86 25 -106 63 -22 43 -21 125 6 302 12 77 35 228 51 335 86 559 92 604 85
674 -9 98 -38 168 -93 224 -77 79 -205 108 -344 77z"/>
</g>
</svg>
